<svg width="45" height="51" viewBox="0 0 45 51" fill="none" xmlns="http://www.w3.org/2000/svg">
<path fill-rule="evenodd" clip-rule="evenodd" d="M26.8244 8.23189C24.1554 7.12633 21.2678 6.64961 18.3851 6.83853C15.5023 7.0275 12.7017 7.87705 10.1998 9.32149L7.67553 10.7789L4.76073 5.73032L7.28504 4.27292C10.5613 2.3814 14.2288 1.26884 18.0038 1.02144C21.7788 0.774 25.5601 1.39831 29.0553 2.84602C32.5504 4.29378 35.6656 6.52611 38.1601 9.37041C40.6542 12.2147 42.461 15.5947 43.4403 19.2489C44.4193 22.9031 44.5448 26.7336 43.8067 30.444C43.0686 34.1544 41.487 37.6453 39.1838 40.6466C36.8807 43.648 33.9183 46.0794 30.5254 47.7525C27.1324 49.4256 22.756 50.296 19.6169 50.296C16.4777 50.296 14.6448 49.8251 12.2376 48.8283C9.89818 47.8592 7.77253 46.439 5.98194 44.6484C4.1914 42.8579 2.77109 40.7318 1.80203 38.3924C0.833018 36.0531 0.334229 33.5457 0.334229 31.0135C0.334229 28.4813 0.833018 25.9738 1.80203 23.6344C2.77109 21.2949 4.1914 19.1692 5.98194 17.3787C7.77253 15.5881 9.89818 14.1678 12.2376 13.1988C14.5771 12.2297 17.0845 11.731 19.6167 11.731C22.149 11.731 24.6564 12.2297 26.9958 13.1988C29.3353 14.1678 31.461 15.5881 33.2515 17.3787C35.0421 19.1692 36.4623 21.2949 37.4314 23.6344C37.8484 24.6407 38.178 25.678 38.4188 26.7351C38.5363 24.7284 38.3323 22.7101 37.8094 20.7577C37.0614 17.9672 35.6819 15.3861 33.7771 13.2141C31.8723 11.0421 29.4934 9.33741 26.8244 8.23189ZM7.97432 37.7538C8.30495 31.4868 13.4914 26.5068 19.841 26.5068C25.9451 26.5068 30.9743 31.1092 31.6477 37.0332C31.7905 36.7479 31.9232 36.4572 32.0456 36.1617C32.7217 34.5295 33.0697 32.7801 33.0697 31.0135C33.0697 29.2468 32.7217 27.4975 32.0456 25.8653C31.3696 24.2331 30.3786 22.7501 29.1294 21.5008C27.8802 20.2516 26.3971 19.2607 24.7649 18.5846C23.1328 17.9085 21.3834 17.5605 19.6167 17.5605C17.8501 17.5605 16.1007 17.9085 14.4685 18.5846C12.8364 19.2607 11.3533 20.2516 10.1041 21.5008C8.8549 22.7501 7.86396 24.2331 7.18786 25.8653C6.51181 27.4975 6.16383 29.2468 6.16383 31.0135C6.16383 32.7801 6.51181 34.5295 7.18786 36.1617C7.41517 36.7104 7.678 37.2422 7.97432 37.7538ZM25.8948 38.3901C25.8948 41.7336 23.1844 44.444 19.841 44.444C16.4975 44.444 13.7871 41.7336 13.7871 38.3901C13.7871 35.0468 16.4975 32.3364 19.841 32.3364C23.1844 32.3364 25.8948 35.0468 25.8948 38.3901Z" fill="#7C3AED"/>
</svg>
